<svg xmlns="http://www.w3.org/2000/svg" xmlns:xlink="http://www.w3.org/1999/xlink" width="837" height="837.002" viewBox="0 0 837 837.002">
  <defs>
    <linearGradient id="linear-gradient" x1="1.238" y1="-0.067" x2="-0.202" y2="1.034" gradientUnits="objectBoundingBox">
      <stop offset="0" stop-color="#fff"/>
      <stop offset="1" stop-color="#fff" stop-opacity="0.012"/>
    </linearGradient>
  </defs>
  <path id="Subtraction_3" data-name="Subtraction 3" d="M418.5,837a425.238,425.238,0,0,1-42.789-2.161A417.874,417.874,0,0,1,2.162,461.289a424.771,424.771,0,0,1,0-85.578A417.874,417.874,0,0,1,375.712,2.16a424.771,424.771,0,0,1,85.578,0,417.874,417.874,0,0,1,373.55,373.55,424.766,424.766,0,0,1,0,85.578A417.872,417.872,0,0,1,461.29,834.84,425.234,425.234,0,0,1,418.5,837Zm0-680.476a263.9,263.9,0,0,0-52.8,5.322,260.541,260.541,0,0,0-93.676,39.419,262.739,262.739,0,0,0-94.915,115.261A260.656,260.656,0,0,0,161.849,365.7a264.53,264.53,0,0,0,0,105.594,260.541,260.541,0,0,0,39.419,93.676,262.739,262.739,0,0,0,115.261,94.915A260.656,260.656,0,0,0,365.7,675.151a264.533,264.533,0,0,0,105.594,0,260.534,260.534,0,0,0,93.675-39.419,262.739,262.739,0,0,0,94.915-115.261A260.649,260.649,0,0,0,675.154,471.3a264.53,264.53,0,0,0,0-105.594,260.543,260.543,0,0,0-39.419-93.676,262.739,262.739,0,0,0-115.261-94.915A260.656,260.656,0,0,0,471.3,161.847,263.9,263.9,0,0,0,418.5,156.525Z" transform="translate(837.001 837.001) rotate(180)" opacity="0.048" fill="url(#linear-gradient)"/>
</svg>
